<?xml version="1.0" encoding="utf-8"?>
<!-- Generator: Adobe Illustrator 18.1.0, SVG Export Plug-In . SVG Version: 6.00 Build 0)  -->
<svg version="1.1" id="Layer_1" xmlns="http://www.w3.org/2000/svg" xmlns:xlink="http://www.w3.org/1999/xlink" x="0px" y="0px"
	 width="54.331px" height="53.679px" viewBox="0 0 54.331 53.679" enable-background="new 0 0 54.331 53.679" xml:space="preserve">
<path fill-rule="evenodd" clip-rule="evenodd" d="M30.791,32.877c-3.003,0-5.702,1.284-7.604,3.317l0.007-0.029
	c0,0-0.053,0.068-0.132,0.171c-0.132,0.143-0.264,0.292-0.389,0.449c-1.209,1.316-4.33,3.937-6.708-0.859l-0.008,0.054
	c-1.052-1.922-2.831-3.367-4.985-3.966c0.025-0.015,0.057-0.022,0.057-0.022c-4.686-1.708-2.767-4.661-1.961-5.635
	c0.053-0.05,0.093-0.114,0.143-0.167c0.089-0.1,0.146-0.157,0.146-0.157l-0.022,0.004c0.803-0.931,1.305-2.129,1.305-3.456
	c0-2.935-2.382-5.317-5.321-5.317C2.382,17.264,0,19.646,0,22.581c0,1.78,0.881,3.338,2.214,4.304L2.19,26.889
	c4.436,2.953,1.209,6.533-0.136,8.267c0.007,0,0.018-0.004,0.025-0.007c-0.953,1.341-1.526,2.975-1.526,4.75
	c0,4.54,3.676,8.217,8.217,8.217c2.286,0,4.351-0.927,5.838-2.436v0.018c0,0,3.855-4.554,6.676,1.801l0.004-0.011
	c1.615,3.645,5.26,6.191,9.504,6.191c5.741,0,10.395-4.658,10.395-10.403C41.186,37.534,36.532,32.877,30.791,32.877z
	 M51.093,19.635H51.1c-1.056-0.488-5.003-1.105-2.757-5.32l-0.01,0.003c0.681-1.013,1.077-2.229,1.077-3.545
	c0-3.516-2.849-6.365-6.366-6.365c-1.569,0-2.985,0.588-4.09,1.526c0.004-0.011,0.007-0.029,0.011-0.036
	c-1.134,0.963-4.533,3.688-7.268-1.655c0,0-0.007,0.032-0.007,0.054C30.291,1.747,27.617,0,24.507,0c-4.543,0-8.224,3.68-8.224,8.22
	c0,4.539,3.68,8.224,8.224,8.224c2.086,0,3.973-0.803,5.421-2.086c0,0.014,0,0.036,0,0.047c0.104-0.107,0.239-0.232,0.385-0.364
	c0.004-0.004,0.004-0.004,0.007-0.011c1.58-1.43,5.243-4.076,7.118-0.235c0.003-0.021,0.007-0.032,0.007-0.043
	c0.931,1.744,2.635,2.999,4.668,3.295l-0.064,0.032c0,0,4.376,0.332,2.075,5.357h0.004c-0.278,0.642-0.435,1.352-0.435,2.1
	c0,2.935,2.382,5.321,5.321,5.321c2.939,0,5.317-2.386,5.317-5.321C54.331,22.335,52.998,20.449,51.093,19.635z"/>
</svg>
