<svg xmlns="http://www.w3.org/2000/svg" style="display: none;">
    <symbol id="close" viewBox="0 0 18.75 18.75">
      <path d="M1.5 1.5l15.75 15.75M17.25 1.5L1.5 17.25"/>
    </symbol>
    <symbol id="fb" viewBox="0 0 29 29">
      <circle fill="none" stroke="#67AD2A" stroke-width="2" stroke-miterlimit="10" cx="14.5" cy="14.5" r="13.5"/><path fill="#67AD2A" d="M15.71 10.786h1.005V9.1h-1.23v.008c-1.927.07-2.323 1.184-2.357 2.355h-.004v1.354h-.984v1.686h.984V19.9h1.967v-5.397h1.477l.292-1.686H15.09v-1.222c0-.395.255-.81.62-.81z"/>
    </symbol>
    <symbol id="logo-white" viewBox="0 0 54.331 53.679">
      <path fill-rule="evenodd" clip-rule="evenodd" d="M30.79 32.877c-3.002 0-5.7 1.284-7.603 3.317l.007-.03-.132.172c-.132.143-.264.292-.39.45-1.208 1.315-4.33 3.936-6.707-.86l-.008.054c-1.052-1.922-2.83-3.367-4.985-3.966.025-.015.057-.022.057-.022-4.687-1.708-2.768-4.66-1.962-5.635.053-.05.093-.114.143-.167.09-.1.147-.157.147-.157l-.022.004c.803-.93 1.305-2.13 1.305-3.456 0-2.934-2.382-5.316-5.32-5.316S0 19.646 0 22.58c0 1.78.88 3.34 2.214 4.305l-.024.004c4.436 2.952 1.21 6.532-.136 8.266.007 0 .018-.004.025-.007C1.125 36.49.552 38.123.552 39.9c0 4.54 3.676 8.216 8.217 8.216 2.286 0 4.35-.927 5.838-2.436v.018s3.855-4.554 6.676 1.8l.004-.01c1.615 3.645 5.26 6.19 9.504 6.19 5.74 0 10.395-4.657 10.395-10.402 0-5.742-4.655-10.4-10.396-10.4zm20.303-13.242h.007c-1.056-.488-5.003-1.105-2.757-5.32l-.01.003c.68-1.013 1.077-2.23 1.077-3.545 0-3.516-2.85-6.365-6.366-6.365-1.57 0-2.985.588-4.09 1.526.004-.01.007-.03.01-.036-1.133.963-4.532 3.688-7.267-1.655 0 0-.007.032-.007.054C30.29 1.747 27.617 0 24.507 0c-4.543 0-8.224 3.68-8.224 8.22 0 4.54 3.68 8.224 8.224 8.224 2.086 0 3.973-.803 5.42-2.086v.047c.105-.107.24-.232.386-.364.004-.003.004-.003.007-.01 1.58-1.43 5.243-4.076 7.118-.235.003-.02.007-.032.007-.043.93 1.744 2.635 3 4.668 3.295l-.064.032s4.375.33 2.074 5.356h.004c-.278.642-.435 1.352-.435 2.1 0 2.935 2.382 5.32 5.32 5.32 2.94 0 5.318-2.385 5.318-5.32 0-2.2-1.332-4.087-3.237-4.9z"/>
    </symbol></svg>