<svg xmlns="http://www.w3.org/2000/svg"><symbol id="logo" viewBox="0 0 84.29 84.29"><path d="M42.15 0a42.15 42.15 0 1 0 42.14 42.15A42.15 42.15 0 0 0 42.15 0zm2.46 63.22a8.16 8.16 0 0 1-7.33-5.05c-2.08-5-5.21-1.55-5.21-1.55a6.44 6.44 0 0 1-9.61-8.52c1.09-1.33 3.7-4.08.27-6.49a4.17 4.17 0 1 1 6.7-3.21 4.13 4.13 0 0 1-1.1 2.69l-.12.12-.11.13c-.65.75-2.22 3 1.42 4.46a6.31 6.31 0 0 1 3.81 3.2c1.77 3.81 4.28 1.82 5.25.81.1-.12.21-.24.32-.34l.1-.13a8.16 8.16 0 1 1 5.61 13.88zM59 44.51a4.18 4.18 0 0 1-4.18-4.18 4 4 0 0 1 .34-1.65c1.81-3.95-1.58-4.23-1.58-4.23A4.93 4.93 0 0 1 50 31.9c-1.47-3-4.35-.94-5.59.18l-.31.29A6.38 6.38 0 0 1 39.8 34a6.45 6.45 0 1 1 5.64-9.54c2.14 4.2 4.82 2 5.7 1.29a5 5 0 0 1 3.21-1.2 5 5 0 0 1 5 5 5.11 5.11 0 0 1-.85 2.78c-1.77 3.31 1.34 3.8 2.17 4.18a4.18 4.18 0 0 1-1.67 8z" fill="#f60" fill-rule="evenodd"/></symbol></svg>